<svg width="22" height="22" viewBox="0 0 22 22" fill="none" xmlns="http://www.w3.org/2000/svg">
<path d="M1.83334 1.83337H3.42835C4.41835 1.83337 5.19751 2.68587 5.11501 3.66671L4.35418 12.7967C4.22584 14.2909 5.40834 15.5742 6.91167 15.5742H16.6742C17.9942 15.5742 19.1492 14.4925 19.25 13.1817L19.745 6.30671C19.855 4.78505 18.7 3.54754 17.1692 3.54754H5.33502" stroke="white" stroke-width="2" stroke-miterlimit="10" stroke-linecap="round" stroke-linejoin="round"/>
<path d="M14.8958 20.1667C15.5287 20.1667 16.0417 19.6537 16.0417 19.0208C16.0417 18.388 15.5287 17.875 14.8958 17.875C14.263 17.875 13.75 18.388 13.75 19.0208C13.75 19.6537 14.263 20.1667 14.8958 20.1667Z" fill="white" stroke="white" stroke-width="1.5" stroke-miterlimit="10" stroke-linecap="round" stroke-linejoin="round"/>
<path d="M7.56249 20.1667C8.19532 20.1667 8.70832 19.6537 8.70832 19.0208C8.70832 18.388 8.19532 17.875 7.56249 17.875C6.92966 17.875 6.41666 18.388 6.41666 19.0208C6.41666 19.6537 6.92966 20.1667 7.56249 20.1667Z" fill="white" stroke="white" stroke-width="1.5" stroke-miterlimit="10" stroke-linecap="round" stroke-linejoin="round"/>
</svg>
