<svg width="20" height="20" viewBox="0 0 20 20" fill="none" xmlns="http://www.w3.org/2000/svg">
<path d="M6.23334 15.2917L8.81667 17.2917C9.15 17.625 9.9 17.7917 10.4 17.7917H13.5667C14.5667 17.7917 15.65 17.0417 15.9 16.0417L17.9 9.95835C18.3167 8.79168 17.5667 7.79168 16.3167 7.79168H12.9833C12.4833 7.79168 12.0667 7.37501 12.15 6.79168L12.5667 4.12501C12.7333 3.37501 12.2333 2.54168 11.4833 2.29168C10.8167 2.04168 9.98334 2.37501 9.65 2.87501L6.23334 7.95835" stroke="#44BD32" stroke-width="1.5" stroke-miterlimit="10"/>
<path d="M1.98333 15.2916V7.12496C1.98333 5.95829 2.48333 5.54163 3.65 5.54163H4.48333C5.65 5.54163 6.15 5.95829 6.15 7.12496V15.2916C6.15 16.4583 5.65 16.875 4.48333 16.875H3.65C2.48333 16.875 1.98333 16.4583 1.98333 15.2916Z" stroke="#44BD32" stroke-width="1.5" stroke-linecap="round" stroke-linejoin="round"/>
</svg>
