<svg width="331" height="130" viewBox="0 0 331 130" fill="none" xmlns="http://www.w3.org/2000/svg">
<path d="M73.899 128C73.899 128 59.8943 96.9397 68.0531 81.4978C76.2119 66.056 86.0991 57.023 90.242 53.6672C94.385 50.3114 97.2571 44.6595 96.0879 32.2707C94.9187 19.9071 113.092 14.4823 117.641 15.7691C122.191 17.0559 142.957 22.4807 155.03 13.4478C167.103 4.4148 182.276 -4.46678 205.126 2.49719C227.976 9.46115 240.684 24.3984 239.515 33.936C238.346 43.4736 235.093 48.6209 235.753 51.0683C236.414 53.5158 241.193 62.6749 255.604 74.7862C270.015 86.8974 268.719 120.531 259.9 128H73.899Z" fill="#EFF5F7"/>
<path d="M1.5 128L329.5 128" stroke="#EFF5F7" stroke-width="3" stroke-linecap="round"/>
<path d="M133.384 101.399C127.507 101.099 127.618 92.8325 133.384 92.5454C149.717 92.6022 192.797 92.5607 209.649 92.5725C214.259 92.5725 218.202 89.4357 219.239 84.945L228.808 43.5067C229.356 41.1341 228.803 38.6784 227.291 36.7698C225.779 34.8611 223.516 33.7511 221.081 33.7511C214.301 33.7511 156.754 33.4906 127.278 33.3731L122.605 16.0364C121.484 11.8933 117.703 9 113.411 9H98.443C96.2654 9 94.5 10.7654 94.5 12.943C94.5 15.1205 96.2654 16.8859 98.443 16.8859H113.411C114.15 16.8859 114.8 17.3841 114.993 18.093L132.937 84.6703C129.782 84.7849 126.843 86.0682 124.615 88.3293C122.273 90.7056 121.015 93.8511 121.073 97.1866C121.19 103.857 126.712 109.284 133.384 109.284H139.134C138.279 111.078 137.799 113.084 137.799 115.199C137.799 122.809 143.99 129 151.6 129C159.21 129 165.401 122.809 165.401 115.199C165.401 113.083 164.921 111.078 164.067 109.284H188.964C188.11 111.078 187.631 113.082 187.631 115.197C187.631 122.807 193.822 128.998 201.431 128.998C209.041 128.998 215.233 122.807 215.233 115.197C215.233 113 214.714 110.922 213.796 109.076C215.357 108.551 216.482 107.079 216.482 105.342C216.482 103.164 214.716 101.399 212.539 101.399H133.384ZM157.515 115.199C157.515 118.461 154.862 121.114 151.6 121.114C148.338 121.114 145.685 118.461 145.685 115.199C145.685 111.94 148.336 109.287 151.595 109.285H151.605C154.864 109.287 157.515 111.94 157.515 115.199ZM201.432 121.112C198.17 121.112 195.517 118.459 195.517 115.197C195.517 111.968 198.119 109.336 201.336 109.285H201.528C204.745 109.336 207.347 111.968 207.347 115.197C207.347 118.459 204.693 121.112 201.432 121.112ZM221.11 41.6659C221.133 41.6953 221.13 41.7093 221.125 41.7319L217.093 59.1927H203.439L205.764 41.5747L221.049 41.6362C221.073 41.6367 221.087 41.6367 221.11 41.6659ZM180.459 84.6863V67.0786H194.444L192.12 84.6863H180.459ZM160.907 84.6863L158.564 67.0786H172.573V84.6863H160.907ZM142.755 84.6863H142.743C141.782 84.686 140.935 84.0378 140.685 83.1144L136.363 67.0786H150.608L152.951 84.6863H142.755ZM157.515 59.1929L155.143 41.371L172.573 41.4412V59.1929H157.515ZM180.459 59.1929V41.473L197.814 41.5429L195.485 59.1929H180.459ZM147.184 41.3386L149.559 59.1927H134.237L129.406 41.2669L147.184 41.3386ZM209.649 84.6863H200.074L202.398 67.0786H215.271L211.555 83.1704C211.349 84.063 210.565 84.6863 209.649 84.6863Z" fill="#C1C6C9"/>
</svg>
