<svg width="22" height="22" viewBox="0 0 22 22" fill="none" xmlns="http://www.w3.org/2000/svg">
<path d="M11 5.90332V8.95582" stroke="white" stroke-width="2" stroke-miterlimit="10" stroke-linecap="round"/>
<path d="M11.0184 1.83337C7.64505 1.83337 4.91338 4.56504 4.91338 7.93838V9.86338C4.91338 10.4867 4.65671 11.4217 4.33588 11.9534L3.17171 13.8967C2.45671 15.0975 2.95171 16.4359 4.27171 16.8759C8.65338 18.3334 13.3925 18.3334 17.7742 16.8759C19.0117 16.4634 19.5434 15.015 18.8742 13.8967L17.71 11.9534C17.3892 11.4217 17.1325 10.4775 17.1325 9.86338V7.93838C17.1234 4.58337 14.3734 1.83337 11.0184 1.83337Z" stroke="white" stroke-width="2" stroke-miterlimit="10" stroke-linecap="round"/>
<path d="M14.0525 17.2517C14.0525 18.9292 12.6775 20.3042 11 20.3042C10.1659 20.3042 9.39587 19.9559 8.84587 19.4059C8.29587 18.8559 7.94754 18.0859 7.94754 17.2517" fill="white"/>
<path d="M14.0525 17.2517C14.0525 18.9292 12.6775 20.3042 11 20.3042C10.1659 20.3042 9.39587 19.9559 8.84587 19.4059C8.29587 18.8559 7.94754 18.0859 7.94754 17.2517" stroke="white" stroke-width="1.5" stroke-miterlimit="10"/>
</svg>
