<svg width="11" height="12" viewBox="0 0 11 12" fill="none" xmlns="http://www.w3.org/2000/svg">
<path d="M7.04078 8.37596C7.12582 8.42586 7.21924 8.45004 7.31211 8.45004C7.49272 8.45004 7.66934 8.35689 7.7691 8.19062C7.91942 7.9382 7.83596 7.61228 7.58479 7.46157L5.85259 6.42887V4.17043C5.85259 3.87711 5.61516 3.63892 5.32108 3.63892C5.02765 3.63892 4.78957 3.87699 4.78957 4.17043V6.73078C4.78957 6.91821 4.88928 7.09165 5.04891 7.18771L7.04078 8.37596Z" fill="#3D3F40"/>
<path fill-rule="evenodd" clip-rule="evenodd" d="M0.083313 6.36457C0.083313 9.35144 2.51311 11.7812 5.49998 11.7812C8.48685 11.7812 10.9166 9.35144 10.9166 6.36457C10.9166 3.3777 8.48685 0.947906 5.49998 0.947906C2.51311 0.947906 0.083313 3.3777 0.083313 6.36457ZM1.14633 6.36457C1.14633 3.96404 3.09945 2.01093 5.49998 2.01093C7.90051 2.01093 9.85363 3.96404 9.85363 6.36457C9.85363 8.76511 7.90051 10.7182 5.49998 10.7182C3.09945 10.7182 1.14633 8.76511 1.14633 6.36457Z" fill="#3D3F40"/>
</svg>
