<?xml version="1.0" encoding="utf-8"?>
<!-- Generator: Adobe Illustrator 22.1.0, SVG Export Plug-In . SVG Version: 6.00 Build 0)  -->
<svg version="1.1" id="Layer_1" xmlns="http://www.w3.org/2000/svg" xmlns:xlink="http://www.w3.org/1999/xlink" x="0px" y="0px"
	 viewBox="0 0 654.4 160.9" style="enable-background:new 0 0 654.4 160.9;" xml:space="preserve">
<style type="text/css">
	.st0{stroke:#FEFEFE;stroke-miterlimit:10;}
	.st1{stroke:#000000;stroke-miterlimit:10;}
	.st2{font-family:'MyriadPro-Regular';}
	.st3{font-size:16.2px;}
</style>
<title>Asset 1</title>
<g id="dShape">
	<path class="st0" d="M57.2,160H0l23.1-26.5h34.1c26.8-3.7,47.3-24.9,47.3-52.8S84,31.9,57.2,28.3H25.6L0,0h57.2
		c41.5,4.7,73.6,36.8,73.6,79.8S98.7,155.2,57.2,160z"/>
	<path class="st0" d="M57.2,105.3H41.6l-13.3,12.2h29c20.4-2.5,36-17.3,36-37.8s-15.7-35.3-36-37.8H29.7l12.1,11.9h15.4
		c13.4,2.1,23.6,12,23.6,25.7S70.7,103.2,57.2,105.3z"/>
</g>
<path id="vShape" class="st0" d="M265.1,129.4L330.3,0h29.4c0,0-78.5,158.8-79.4,158.8S265.1,129.4,265.1,129.4z"/>
<path class="st0" d="M109.9,1.5h117.5c0,0,18.7,7.8,0,17.4h-96.6C130.7,18.9,120,7.4,109.9,1.5z"/>
<path class="st0" d="M139,10.3c0,3.6-1.3,5.6-3.7,5.6c-2.1,0-3.4-1.9-3.5-5.4s1.5-5.4,3.7-5.4S139,6.9,139,10.3z M133.3,10.4
	c0,2.7,0.9,4.3,2.1,4.3c1.5,0,2.2-1.7,2.2-4.4s-0.7-4.3-2.1-4.3C134.2,6.1,133.3,7.6,133.3,10.4L133.3,10.4z"/>
<path class="st0" d="M147.8,6.5L147.8,6.5l-1.8,1l-0.3-1.1l2.3-1.2h1.2v10.5h-1.4L147.8,6.5z"/>
<path class="st0" d="M159.1,6.5L159.1,6.5l-1.8,1L157,6.4l2.3-1.2h1.2v10.5h-1.4L159.1,6.5z"/>
<path class="st0" d="M174.7,10.3c0,3.6-1.3,5.6-3.7,5.6c-2.1,0-3.4-1.9-3.5-5.4s1.5-5.4,3.7-5.4S174.7,6.9,174.7,10.3z M169,10.4
	c0,2.7,0.8,4.3,2.1,4.3c1.5,0,2.1-1.7,2.1-4.4s-0.7-4.3-2.1-4.3C169.9,6.1,169,7.6,169,10.4L169,10.4z"/>
<path class="st0" d="M186.5,10.3c0,3.6-1.3,5.6-3.7,5.6c-2.1,0-3.5-1.9-3.5-5.4S180.9,5,183,5S186.5,6.9,186.5,10.3z M180.8,10.4
	c0,2.7,0.8,4.3,2.1,4.3c1.4,0,2.1-1.7,2.1-4.4s-0.7-4.3-2.1-4.3C181.7,6.1,180.8,7.6,180.8,10.4z"/>
<path class="st0" d="M194.3,6.5L194.3,6.5l-1.8,1l-0.3-1.1l2.3-1.2h1.2v10.5h-1.4L194.3,6.5z"/>
<path class="st0" d="M210.5,10.3c0,3.6-1.3,5.6-3.7,5.6c-2.1,0-3.4-1.9-3.5-5.4S204.8,5,207,5S210.5,6.9,210.5,10.3z M204.7,10.4
	c0,2.7,0.8,4.3,2.1,4.3c1.5,0,2.1-1.7,2.1-4.4s-0.7-4.3-2.1-4.3C205.6,6.1,204.7,7.6,204.7,10.4z"/>
<path class="st0" d="M222.7,10.3c0,3.6-1.3,5.6-3.7,5.6c-2.1,0-3.4-1.9-3.5-5.4s1.5-5.4,3.7-5.4S222.7,6.9,222.7,10.3z M217,10.4
	c0,2.7,0.8,4.3,2.1,4.3c1.5,0,2.2-1.7,2.2-4.4s-0.7-4.3-2.1-4.3C217.9,6.1,217,7.6,217,10.4L217,10.4z"/>
<path class="st1" d="M148,31.6c0,3.6-1.3,5.6-3.7,5.6c-2.1,0-3.4-1.9-3.5-5.4s1.5-5.5,3.7-5.5S148,28.3,148,31.6z M142.3,31.8
	c0,2.7,0.9,4.3,2.1,4.3c1.5,0,2.2-1.7,2.2-4.4s-0.7-4.3-2.1-4.3C143.2,27.4,142.3,28.9,142.3,31.8L142.3,31.8z"/>
<path class="st1" d="M151,27.8L151,27.8l-1.8,1l-0.3-1.1l2.3-1.2h1.2V37H151V27.8z"/>
<path class="st1" d="M161.7,31.6c0,3.6-1.3,5.6-3.7,5.6c-2.1,0-3.5-1.9-3.5-5.4s1.5-5.5,3.7-5.5S161.7,28.3,161.7,31.6z M156,31.8
	c0,2.7,0.8,4.3,2.1,4.3c1.4,0,2.1-1.7,2.1-4.4s-0.7-4.3-2.1-4.3C156.9,27.4,156,28.9,156,31.8L156,31.8z"/>
<path class="st1" d="M171,31.6c0,3.6-1.3,5.6-3.7,5.6c-2.1,0-3.4-1.9-3.5-5.4s1.5-5.5,3.7-5.5S171,28.3,171,31.6z M165.3,31.8
	c0,2.7,0.9,4.3,2.1,4.3c1.5,0,2.2-1.7,2.2-4.4s-0.7-4.3-2.1-4.3C166.2,27.4,165.3,28.9,165.3,31.8z"/>
<path class="st1" d="M180.3,31.6c0,3.6-1.3,5.6-3.7,5.6c-2.1,0-3.5-1.9-3.5-5.4s1.5-5.5,3.7-5.5S180.3,28.3,180.3,31.6z M174.6,31.8
	c0,2.7,0.8,4.3,2.1,4.3s2.1-1.7,2.1-4.4s-0.7-4.3-2.1-4.3C175.5,27.4,174.6,28.9,174.6,31.8z"/>
<path class="st1" d="M183.3,27.8L183.3,27.8l-1.8,1l-0.3-1.1l2.3-1.2h1.2V37h-1.4L183.3,27.8z"/>
<path class="st1" d="M194,31.6c0,3.6-1.3,5.6-3.7,5.6c-2.1,0-3.4-1.9-3.5-5.4s1.5-5.5,3.7-5.5S194,28.3,194,31.6z M188.3,31.8
	c0,2.7,0.9,4.3,2.1,4.3c1.5,0,2.2-1.7,2.2-4.4s-0.7-4.3-2.1-4.3C189.2,27.4,188.3,28.9,188.3,31.8L188.3,31.8z"/>
<path class="st1" d="M197,27.8L197,27.8l-1.8,1l-0.3-1.1l2.3-1.2h1.2V37H197V27.8z"/>
<path class="st1" d="M155.2,52.8c0,3.6-1.3,5.6-3.7,5.6c-2.1,0-3.4-1.9-3.5-5.4s1.5-5.5,3.7-5.5S155.2,49.5,155.2,52.8z M149.5,53
	c0,2.7,0.8,4.3,2.1,4.3s2.1-1.7,2.1-4.4s-0.7-4.3-2.1-4.3C150.4,48.6,149.5,50.1,149.5,53L149.5,53z"/>
<path class="st1" d="M157.7,49L157.7,49l-1.8,1l-0.3-1.1l2.3-1.2h1.2v10.5h-1.4L157.7,49z"/>
<path class="st1" d="M161.8,49L161.8,49l-1.8,1l-0.3-1.1l2.3-1.2h1.2v10.5h-1.4L161.8,49z"/>
<path class="st1" d="M165.8,49L165.8,49l-1.8,1l-0.3-1.1l2.3-1.2h1.2v10.5h-1.4L165.8,49z"/>
<path class="st1" d="M175.1,52.8c0,3.6-1.3,5.6-3.7,5.6c-2.1,0-3.4-1.9-3.5-5.4s1.5-5.5,3.7-5.5S175.1,49.5,175.1,52.8z M169.4,53
	c0,2.7,0.8,4.3,2.1,4.3c1.5,0,2.1-1.7,2.1-4.4s-0.7-4.3-2.1-4.3C170.3,48.6,169.4,50.1,169.4,53L169.4,53z"/>
<path class="st1" d="M177.6,49L177.6,49l-1.8,1l-0.3-1.1l2.3-1.2h1.2v10.5h-1.4L177.6,49z"/>
<path class="st1" d="M181.6,49L181.6,49l-1.8,1l-0.3-1.1l2.3-1.2h1.2v10.5h-1.4L181.6,49z"/>
<path class="st1" d="M191,52.8c0,3.6-1.3,5.6-3.7,5.6c-2.1,0-3.4-1.9-3.5-5.4s1.5-5.5,3.7-5.5S191,49.5,191,52.8z M185.3,53
	c0,2.7,0.9,4.3,2.1,4.3c1.5,0,2.2-1.7,2.2-4.4s-0.7-4.3-2.1-4.3C186.2,48.6,185.3,50.1,185.3,53L185.3,53z"/>
<path class="st0" d="M148.8,69.2h66.7c0,0,15.1,6.5,0,16.6h-66.9C148.6,85.8,149.7,79.9,148.8,69.2z"/>
<text transform="matrix(1 0 0 1 151.08 83.36)" class="st0 st2 st3">01000110</text>
<path class="st1" d="M154.9,101.9c0,3.6-1.3,5.6-3.7,5.6c-2.1,0-3.4-1.9-3.5-5.4s1.5-5.5,3.7-5.5S154.9,98.5,154.9,101.9z
	 M149.1,102c0,2.7,0.8,4.3,2.1,4.3c1.5,0,2.2-1.7,2.2-4.4s-0.7-4.3-2.1-4.3C150,97.6,149.1,99.2,149.1,102L149.1,102z"/>
<path class="st1" d="M157.4,98L157.4,98l-1.8,1l-0.3-1l2.3-1.2h1.2v10.5h-1.4V98z"/>
<path class="st1" d="M161.9,98L161.9,98l-1.9,1l-0.3-1l2.3-1.2h1.2v10.5h-1.4V98z"/>
<path class="st1" d="M171.7,101.9c0,3.6-1.3,5.6-3.7,5.6c-2.1,0-3.4-1.9-3.5-5.4s1.5-5.5,3.7-5.5S171.7,98.5,171.7,101.9z M166,102
	c0,2.7,0.8,4.3,2.1,4.3c1.5,0,2.2-1.7,2.2-4.4s-0.7-4.3-2.1-4.3C166.9,97.6,166,99.2,166,102z"/>
<path class="st1" d="M174.7,98L174.7,98l-1.8,1l-0.3-1l2.3-1.2h1.2v10.5h-1.4L174.7,98z"/>
<path class="st1" d="M179.2,98L179.2,98l-1.8,1l-0.3-1l2.3-1.2h1.2v10.5h-1.4L179.2,98z"/>
<path class="st1" d="M189,101.9c0,3.6-1.3,5.6-3.7,5.6c-2.1,0-3.5-1.9-3.5-5.4s1.5-5.5,3.7-5.5S189,98.5,189,101.9z M183.3,102
	c0,2.7,0.8,4.3,2.1,4.3c1.4,0,2.1-1.7,2.1-4.4s-0.7-4.3-2.1-4.3C184.2,97.6,183.3,99.2,183.3,102L183.3,102z"/>
<path class="st1" d="M196.8,101.9c0,3.6-1.3,5.6-3.7,5.6c-2.1,0-3.4-1.9-3.5-5.4s1.5-5.5,3.7-5.5S196.8,98.5,196.8,101.9z
	 M191.1,102c0,2.7,0.9,4.3,2.1,4.3c1.5,0,2.2-1.7,2.2-4.4s-0.7-4.3-2.1-4.3C192,97.6,191.1,99.2,191.1,102L191.1,102z"/>
<text transform="matrix(1 0 0 1 141.5 130.51)" class="st1 st2 st3">01010010</text>
<path class="st0" d="M112.2,157.5l115.1-0.4c0,0,18.3-7.8-0.1-17.4l-94.7,0.4C132.5,140,122,151.5,112.2,157.5z"/>
<path class="st0" d="M139.5,148.2c0,3.6-1.3,5.6-3.7,5.6c-2.1,0-3.4-1.9-3.5-5.4s1.5-5.5,3.7-5.5S139.5,144.8,139.5,148.2z
	 M133.8,148.3c0,2.7,0.9,4.3,2.1,4.3c1.5,0,2.2-1.7,2.2-4.4s-0.7-4.3-2.1-4.3C134.7,143.9,133.8,145.4,133.8,148.3z"/>
<path class="st0" d="M148.8,144.3L148.8,144.3l-1.8,1l-0.3-1.1l2.3-1.2h1.2v10.5h-1.4L148.8,144.3z"/>
<path class="st0" d="M160.5,144.3L160.5,144.3l-1.8,1l-0.3-1.1l2.3-1.2h1.2v10.5h-1.4L160.5,144.3z"/>
<path class="st0" d="M175.7,148.2c0,3.6-1.3,5.6-3.7,5.6c-2.1,0-3.4-1.9-3.5-5.4s1.5-5.5,3.7-5.5S175.7,144.8,175.7,148.2z
	 M170,148.3c0,2.7,0.8,4.3,2.1,4.3c1.5,0,2.1-1.7,2.1-4.4s-0.7-4.3-2.1-4.3C170.9,143.9,170,145.4,170,148.3L170,148.3z"/>
<path class="st0" d="M184.5,144.3L184.5,144.3l-1.8,1l-0.3-1.1l2.3-1.2h1.2v10.5h-1.4L184.5,144.3z"/>
<path class="st0" d="M195.8,144.3L195.8,144.3l-1.8,1l-0.3-1.1l2.3-1.2h1.2v10.5h-1.4L195.8,144.3z"/>
<path class="st0" d="M211.9,148.2c0,3.6-1.3,5.6-3.7,5.6c-2.1,0-3.4-1.9-3.5-5.4s1.5-5.5,3.7-5.5S211.9,144.8,211.9,148.2z
	 M206.2,148.3c0,2.7,0.9,4.3,2.1,4.3c1.5,0,2.2-1.7,2.2-4.4s-0.7-4.3-2.1-4.3C207.1,143.9,206.2,145.4,206.2,148.3z"/>
<path class="st0" d="M220.7,144.3L220.7,144.3l-1.8,1l-0.3-1.1l2.3-1.2h1.2v10.5h-1.4L220.7,144.3z"/>
<g id="firm">
	<path class="st0" d="M402,153.8l-9.3,5.7V77.7h45.4l-3.9,8.3H402v24.6h32v8.4h-32V153.8z"/>
	<path class="st0" d="M477.5,122.3v31.5l-9.3,5.7V77.7H488c2.8,0,5.7,0.1,8.5,0.4c2.2,0.2,4.3,0.6,6.4,1.2c5.3,1.4,9.4,3.9,12.2,7.4
		c2.9,3.7,4.4,8.3,4.2,13c0,2.8-0.5,5.6-1.5,8.3c-0.9,2.4-2.4,4.5-4.2,6.3c-1.9,1.8-4,3.3-6.4,4.4c-2.6,1.2-5.4,2-8.3,2.5v0.2
		l22.5,32.6h-9.3l-23.5-31.5L477.5,122.3z M477.5,86v27.9h9.2c2.9,0,5.3-0.1,7.3-0.3c1.8-0.1,3.6-0.5,5.4-1c2.9-0.8,5.5-2.4,7.5-4.7
		c1.8-2.4,2.8-5.4,2.6-8.5c0.1-2.8-0.8-5.6-2.5-7.9c-1.8-2.1-4.1-3.6-6.8-4.3c-1.6-0.5-3.2-0.8-4.9-0.9c-1.9-0.2-4.3-0.3-7.2-0.3
		L477.5,86z"/>
	<path class="st0" d="M573.3,153.8h-8.8V119c0-2-0.2-4-0.8-6c-0.4-1.5-1.2-2.9-2.2-4.1c-1-1-2.1-1.8-3.5-2.3c-1.5-0.5-3-0.8-4.5-0.7
		c-3.1,0-6,0.9-8.6,2.5c-2.7,1.9-5.1,4.2-6.9,7v38.4h-8.8V99.7h6.8l1.7,7.5h0.2c1-1.2,2.1-2.4,3.2-3.5c1.2-1.1,2.5-2,3.9-2.8
		c1.5-0.8,3-1.5,4.7-1.9c1.8-0.5,3.7-0.7,5.6-0.7c3.6-0.1,7.1,0.9,10,2.9c2.7,2,4.9,4.8,6.1,7.9h0.2c2.2-3.2,5-5.9,8.2-7.9
		c3.2-2,7-3,10.8-2.9c2,0,4,0.3,6,0.8c2.1,0.5,4.1,1.5,5.9,2.9c1.9,1.6,3.4,3.6,4.4,5.9c1.3,3.1,1.9,6.4,1.8,9.7v41.6l-8.8-5.4V119
		c0-2-0.2-4.1-0.8-6c-0.4-1.5-1.2-2.9-2.2-4.1c-0.9-1.1-2.1-1.9-3.5-2.3c-1.5-0.5-3-0.8-4.5-0.7c-3.1,0-6.1,0.9-8.6,2.5
		c-2.8,1.9-5.1,4.2-7,7L573.3,153.8z"/>
	<path class="st0" d="M446.9,153.8V99.7h8.8V157L446.9,153.8z"/>
	<polygon class="st0" points="450.6,94 445.5,86.5 454.9,74.1 459.8,82 	"/>
</g>
<g id="angel">
	<polygon class="st0" points="616.1,75.9 631.5,75.9 654.4,118.4 631.5,160.9 616.1,160.9 640.1,118.4 	"/>
	<polygon class="st0" points="385.7,75.7 370.3,75.7 347.4,118.2 370.3,160.7 385.7,160.7 361.7,118.2 	"/>
</g>
</svg>
